<?xml version="1.0" standalone="no"?>
<!DOCTYPE svg PUBLIC "-//W3C//DTD SVG 20010904//EN"
 "http://www.w3.org/TR/2001/REC-SVG-20010904/DTD/svg10.dtd">
<svg version="1.0" xmlns="http://www.w3.org/2000/svg"
 width="512.000000pt" height="512.000000pt" viewBox="0 0 512.000000 512.000000"
 preserveAspectRatio="xMidYMid meet">
<metadata>
Created by potrace 1.14, written by Peter Selinger 2001-2017
</metadata>
<g transform="translate(0.000000,512.000000) scale(0.100000,-0.100000)"
fill="#000000" stroke="none">
<path d="M0 4920 l0 -200 40 0 c22 0 40 4 40 8 0 16 40 11 40 -6 1 -15 2 -15
14 1 11 14 15 15 19 5 3 -8 6 -5 6 6 1 18 2 18 20 2 15 -13 20 -14 24 -4 4 10
8 10 14 1 5 -6 22 -10 38 -8 17 1 35 -1 42 -6 7 -7 14 -6 18 1 5 8 11 8 21 -1
7 -6 20 -9 28 -6 7 3 22 0 32 -7 21 -15 82 -31 102 -27 6 1 12 -3 12 -9 0 -5
5 -10 12 -10 6 0 20 -8 31 -17 11 -10 17 -12 13 -5 -4 6 -2 12 3 12 6 0 11 -7
11 -16 0 -14 3 -14 15 -4 12 10 15 10 15 -1 0 -12 2 -12 9 0 7 11 10 10 15 -6
4 -13 25 -25 60 -36 30 -10 59 -24 66 -32 7 -8 18 -15 25 -15 7 0 15 -7 19
-15 3 -8 12 -15 20 -15 9 0 20 -9 26 -20 6 -11 15 -20 20 -20 6 0 29 -18 51
-40 23 -22 48 -40 55 -40 8 0 14 -8 14 -17 0 -13 2 -15 8 -5 6 9 18 3 44 -22
20 -19 35 -36 33 -38 -2 -2 4 -9 12 -17 13 -12 14 -11 8 9 -7 21 -7 22 12 3
11 -10 15 -21 10 -24 -5 -4 1 -10 14 -14 13 -4 33 -16 44 -26 52 -50 88 -79
96 -79 5 0 9 -6 9 -13 0 -14 35 -47 49 -47 6 0 12 -9 16 -19 3 -10 32 -36 65
-56 33 -21 60 -44 60 -51 0 -14 39 -40 53 -36 5 2 7 -3 5 -10 -7 -19 17 -38
46 -38 18 0 26 -5 26 -17 0 -9 7 -23 15 -32 8 -9 23 -26 35 -38 11 -13 31 -23
45 -23 14 0 25 -5 25 -11 0 -6 6 -9 14 -6 15 6 31 -18 27 -40 -1 -8 4 -10 14
-7 9 4 15 0 15 -9 0 -9 9 -19 20 -22 22 -7 27 -25 8 -26 -7 0 -4 -4 7 -9 14
-6 15 -9 5 -10 -10 0 -8 -5 7 -13 12 -7 21 -16 20 -22 -1 -5 5 -10 13 -11 8
-1 23 -2 32 -2 9 -1 20 -11 23 -22 3 -11 13 -20 21 -20 21 0 64 -30 64 -45 0
-6 10 -20 22 -31 19 -16 20 -16 9 -1 -8 9 -10 21 -6 25 4 4 10 1 13 -7 2 -7
13 -22 22 -31 10 -10 15 -22 12 -26 -4 -4 -1 -4 6 0 7 4 15 1 18 -8 3 -9 13
-16 21 -16 12 0 12 2 -1 16 -22 21 -20 24 8 11 13 -6 21 -17 19 -24 -3 -8 3
-13 16 -13 12 0 21 5 21 10 0 6 3 9 8 9 18 -3 46 3 35 8 -7 2 -13 9 -13 14 0
6 4 8 9 5 10 -7 25 22 22 42 -1 6 2 12 6 12 8 0 12 26 13 77 0 17 5 21 18 17
10 -4 13 -2 7 3 -11 9 -34 64 -42 102 -4 16 -2 22 6 17 6 -4 11 -2 11 4 0 6 4
8 10 5 15 -9 1 22 -44 99 -42 70 -107 143 -190 211 -49 40 -55 59 -31 104 16
32 33 41 75 41 46 0 71 -14 132 -74 36 -37 58 -52 61 -44 3 7 6 2 6 -12 1 -21
3 -22 12 -10 9 12 10 11 6 -6 -3 -13 3 -25 14 -33 11 -6 19 -18 19 -26 0 -8 7
-15 15 -15 16 0 36 -39 28 -52 -2 -5 1 -8 6 -8 6 0 11 5 11 10 0 6 9 1 21 -11
12 -12 29 -19 39 -16 16 4 18 0 15 -25 -3 -25 -1 -27 11 -17 8 6 14 8 15 3 0
-5 4 0 9 11 7 16 9 17 9 3 1 -20 17 -26 51 -19 l25 5 -25 7 -25 7 25 1 c31 2
64 26 55 40 -3 6 1 11 9 11 9 0 16 5 16 10 0 6 7 10 15 10 9 0 18 7 21 15 4 8
12 15 19 15 8 0 17 9 20 20 3 11 10 20 15 20 5 0 24 14 42 30 18 17 36 30 41
30 4 0 5 5 2 10 -4 6 7 15 24 21 17 6 31 15 31 20 0 5 6 9 14 9 8 0 21 9 28
19 16 22 74 36 115 27 31 -7 63 -50 63 -85 0 -12 -41 -61 -110 -130 -60 -60
-110 -114 -110 -120 0 -17 -4 -24 -27 -49 -13 -14 -19 -30 -16 -39 5 -12 3
-14 -7 -8 -9 5 -11 4 -6 -4 10 -15 29 -3 22 15 -3 8 -1 14 4 14 6 0 10 8 10
18 0 14 2 15 10 2 13 -21 12 -33 -2 -24 -8 5 -9 0 -6 -14 4 -14 2 -20 -4 -16
-6 4 -8 -1 -4 -14 4 -11 2 -23 -4 -27 -6 -3 -8 -11 -5 -16 4 -5 -1 -12 -9 -15
-19 -7 -21 -30 -3 -37 9 -4 9 -7 -1 -15 -7 -5 -15 -20 -16 -33 -2 -13 -6 -35
-11 -48 -5 -16 -4 -21 4 -17 6 4 11 0 11 -9 0 -9 -4 -14 -9 -11 -13 9 -22 -36
-9 -51 7 -9 7 -13 -1 -13 -6 0 -11 -11 -11 -25 0 -22 4 -25 28 -21 15 2 35 5
44 5 14 1 16 5 8 26 -6 16 -6 25 0 25 6 0 10 -4 10 -9 0 -5 10 -7 22 -3 21 5
21 6 2 13 -16 6 -15 8 9 8 15 1 27 6 27 11 0 6 5 10 11 10 6 0 9 -6 6 -14 -4
-11 1 -14 21 -12 22 3 27 9 27 29 -1 14 3 23 7 21 5 -3 25 0 44 6 27 9 33 15
23 21 -10 6 -6 9 14 9 15 0 27 5 27 11 0 15 26 39 44 39 22 0 29 18 9 23 -14
4 -12 5 5 6 12 0 25 8 28 16 4 8 10 13 14 10 5 -3 11 4 15 15 4 11 10 18 15
15 5 -3 10 -1 12 4 1 5 12 11 23 13 23 4 46 29 38 42 -8 13 19 26 41 20 15 -5
18 -3 13 10 -4 10 -3 15 3 11 6 -3 10 4 10 17 0 18 2 20 10 8 8 -12 10 -10 10
10 0 17 3 21 8 12 5 -7 16 -10 25 -6 9 3 14 10 11 15 -3 5 2 9 12 9 13 0 14 3
4 15 -10 13 -9 15 11 15 17 0 20 3 11 9 -10 6 -10 10 3 21 11 9 18 10 29 1 11
-10 16 -8 21 9 5 15 12 19 26 15 14 -5 19 -2 19 14 0 15 4 19 17 14 13 -5 15
-2 10 11 -4 10 -3 15 3 11 6 -3 10 -1 10 5 0 11 28 44 39 46 3 0 15 5 25 9 19
8 19 9 0 16 -14 6 -15 8 -3 8 9 1 21 11 28 24 l12 22 -5 -22 c-2 -13 0 -23 5
-23 5 0 9 7 9 15 0 8 5 15 11 15 5 0 7 5 4 10 -4 6 -3 10 2 9 22 -4 33 3 33
22 0 11 5 17 10 14 6 -4 31 14 56 39 25 25 52 46 60 46 8 0 13 4 9 9 -6 10 46
51 64 51 6 0 11 5 11 10 0 6 5 10 11 10 7 0 27 16 46 35 19 19 38 35 43 35 6
0 10 4 10 9 0 5 14 12 31 16 17 4 33 13 36 21 3 8 12 14 19 14 8 0 17 6 20 14
3 8 17 17 32 21 20 5 23 8 12 15 -12 7 -11 10 5 15 11 3 48 19 83 36 34 16 70
29 80 29 15 0 15 2 2 10 -12 8 -10 10 10 10 14 0 36 7 48 16 13 9 26 14 28 11
3 -3 15 4 26 15 11 11 26 17 33 14 8 -3 15 0 18 7 2 7 10 12 18 13 8 0 22 2
32 2 9 1 17 9 17 18 0 12 6 15 25 10 16 -4 25 -2 25 5 0 6 6 9 14 6 7 -3 18
-1 23 4 11 11 105 31 151 32 17 1 32 5 32 10 0 4 5 5 11 1 13 -8 110 -7 152 2
l27 6 0 189 0 189 -2560 0 -2560 0 0 -200z m3577 -1002 c-3 -8 -6 -5 -6 6 -1
11 2 17 5 13 3 -3 4 -12 1 -19z m-1900 -114 c-3 -3 -12 -4 -19 -1 -8 3 -5 6 6
6 11 1 17 -2 13 -5z m574 -67 c-10 -9 -11 -8 -5 6 3 10 9 15 12 12 3 -3 0 -11
-7 -18z m599 -279 c0 -4 -7 -8 -15 -8 -8 0 -15 4 -15 8 0 5 7 9 15 9 8 0 15
-4 15 -9z m148 -6 c2 -7 -2 -10 -12 -6 -9 3 -16 11 -16 16 0 13 23 5 28 -10z
m-158 -54 c0 -4 -9 -8 -21 -8 -11 0 -18 4 -15 8 3 5 12 9 21 9 8 0 15 -4 15
-9z"/>
<path d="M4710 4559 c0 -5 -3 -8 -8 -5 -4 2 -30 -6 -57 -20 -28 -13 -56 -24
-64 -24 -8 0 -11 -3 -8 -7 4 -3 -27 -21 -68 -39 -85 -37 -134 -66 -238 -141
-40 -29 -90 -65 -112 -80 -103 -71 -408 -354 -664 -616 -47 -48 -117 -118
-156 -155 -188 -180 -225 -225 -282 -347 -58 -122 -69 -140 -91 -143 -12 -2
-22 -8 -22 -14 0 -6 -10 -8 -24 -4 -25 6 -52 -14 -38 -29 4 -5 1 -5 -6 -1 -19
11 -72 -55 -72 -91 0 -38 -25 -123 -36 -123 -7 0 -19 -3 -28 -6 -14 -5 -16 5
-16 74 0 45 -4 84 -10 87 -5 3 -10 -3 -10 -14 0 -12 -4 -21 -10 -21 -5 0 -10
7 -10 15 0 16 -38 35 -74 36 -58 2 -201 -14 -207 -23 -4 -7 -9 -5 -13 3 -3 8
-4 2 -2 -13 2 -16 -1 -28 -6 -28 -5 0 -8 -29 -7 -63 2 -71 -5 -94 -25 -78 -9
7 -11 29 -8 67 3 39 1 55 -6 50 -13 -8 -35 28 -24 39 4 3 0 5 -8 3 -8 -1 -14
3 -12 10 1 6 -3 12 -8 12 -6 0 -15 12 -20 26 -6 14 -14 23 -19 20 -5 -4 -7 3
-4 14 3 12 0 20 -6 20 -7 0 -10 4 -7 9 8 13 -60 81 -81 81 -12 0 -29 21 -50
58 -27 48 -127 182 -204 272 -113 131 -538 564 -619 629 -25 20 -64 53 -86 74
-23 21 -79 68 -126 105 -95 76 -111 89 -141 117 -12 11 -42 35 -67 54 -25 19
-47 37 -50 41 -9 12 -174 105 -220 124 -84 34 -91 36 -127 36 -35 0 -35 -1
-29 -32 3 -18 12 -37 20 -43 16 -13 9 -35 -11 -35 -12 0 -13 3 -4 14 10 12 8
13 -10 9 -17 -5 -20 -3 -14 8 5 8 5 11 0 7 -4 -4 -13 -3 -20 2 -6 5 -26 10
-43 12 -18 1 -32 6 -32 10 0 4 -10 5 -22 3 -12 -3 -27 0 -35 6 -10 9 -13 7
-13 -5 0 -16 -1 -16 -16 -1 -9 9 -24 13 -32 10 -8 -3 -19 0 -24 7 -5 9 -8 7
-8 -7 0 -15 -3 -17 -9 -7 -11 17 -21 17 -32 0 -7 -10 -9 -10 -9 0 0 6 -5 12
-11 12 -6 0 -8 -7 -5 -17 6 -16 6 -16 -12 0 -21 19 -37 23 -26 5 4 -6 3 -8 -4
-4 -6 3 -13 2 -17 -4 -3 -5 -11 -10 -16 -10 -6 0 -3 7 5 16 9 8 16 18 16 21 0
4 -3 3 -7 0 -3 -4 -12 -2 -19 4 -12 9 -14 -368 -14 -2260 l0 -2271 2560 0
2560 0 0 2252 c0 1632 -4 2255 -12 2265 -8 10 -14 10 -24 2 -11 -9 -14 -8 -14
2 0 11 -2 11 -9 0 -8 -13 -12 -13 -26 -1 -11 9 -19 10 -23 3 -9 -13 -73 -23
-65 -10 4 6 -5 8 -21 5 -15 -3 -26 -1 -26 6 0 7 -3 7 -8 1 -4 -5 -16 -12 -27
-13 -11 -2 -25 -8 -32 -13 -7 -6 -12 -6 -15 1 -2 7 -15 5 -36 -6 -18 -9 -36
-14 -38 -11 -11 10 21 47 41 47 15 0 17 2 6 9 -7 5 -21 6 -31 4 -10 -3 -20 2
-23 11 -7 18 -27 22 -27 5z m-220 -509 c8 5 24 10 35 10 17 0 17 -2 5 -10 -13
-9 -7 -14 13 -11 4 0 7 -3 7 -9 0 -5 -6 -10 -12 -11 -7 0 -4 -4 7 -9 11 -5 14
-9 7 -9 -7 -1 -11 -5 -7 -10 3 -5 -5 -12 -17 -14 -21 -4 -21 -4 3 -6 16 0 26
-7 26 -16 0 -8 -4 -15 -9 -15 -4 0 -8 5 -8 10 0 6 -10 10 -22 9 -22 0 -22 -1
-3 -9 14 -6 15 -9 5 -10 -10 -1 -9 -4 5 -10 16 -7 14 -9 -13 -7 -23 1 -32 6
-30 17 3 23 -12 61 -23 55 -5 -4 -9 0 -9 8 0 10 7 13 20 10 12 -3 20 0 20 6 0
7 -4 9 -10 6 -5 -3 -10 -1 -10 4 0 6 -8 11 -17 12 -11 0 -13 3 -5 6 6 2 13 14
13 26 1 18 3 17 8 -5 5 -21 9 -25 21 -18z m-3475 -10 c14 -15 15 -20 4 -20
-12 0 -12 -2 0 -9 8 -5 24 -8 35 -5 21 3 21 3 2 -11 -19 -15 -56 -22 -43 -9 4
4 -1 14 -11 23 -9 9 -23 24 -31 34 -12 15 -11 17 6 17 11 0 28 -9 38 -20z
m3560 -148 c-3 -8 0 -19 7 -24 8 -6 4 -7 -12 -2 -33 9 -56 44 -30 44 6 0 10
-4 10 -10 0 -5 5 -10 11 -10 6 0 8 7 5 16 -3 9 -2 12 5 9 6 -4 8 -14 4 -23z
m-85 8 c0 -5 -8 -10 -17 -10 -15 0 -16 2 -3 10 19 12 20 12 20 0z m20 -28 c-8
-3 -18 -10 -22 -16 -5 -7 -8 -5 -8 6 0 18 19 29 35 20 5 -3 2 -8 -5 -10z m76
-34 c3 -5 -2 -8 -11 -6 -10 2 -20 -3 -22 -10 -3 -7 1 -10 11 -6 9 3 16 1 16
-4 0 -17 -34 -19 -46 -3 -10 12 -11 10 -9 -12 2 -17 -1 -25 -7 -21 -7 4 -8 2
-4 -4 11 -18 29 -14 22 4 -5 14 -4 15 8 5 11 -9 15 -9 19 1 4 8 6 7 6 -4 1
-10 6 -18 11 -18 7 0 7 -7 0 -20 -6 -12 -16 -18 -23 -14 -7 4 -9 4 -5 0 4 -5
3 -19 -2 -32 -6 -15 -6 -24 0 -24 6 0 10 8 11 18 1 9 5 -2 11 -26 7 -33 6 -45
-6 -57 -22 -22 -33 -18 -41 13 l-7 27 -9 -23 c-5 -13 -12 -21 -17 -18 -4 2 -5
-12 -3 -32 l6 -37 3 33 c3 32 22 46 22 16 0 -8 4 -13 8 -10 4 2 14 1 22 -5 10
-6 11 -9 3 -9 -7 0 -13 -5 -13 -11 0 -6 7 -8 16 -5 14 5 15 4 4 -9 -7 -9 -10
-18 -7 -22 4 -3 2 -12 -4 -19 -10 -12 -18 -52 -22 -107 -1 -11 -7 -15 -16 -12
-12 5 -12 3 -1 -11 11 -12 11 -20 3 -34 -7 -10 -9 -28 -6 -41 5 -18 3 -21 -10
-16 -10 4 -17 2 -17 -2 0 -5 -3 -18 -6 -28 -5 -15 -4 -15 5 -3 9 13 11 13 11
-2 0 -10 -9 -22 -21 -28 -16 -9 -19 -18 -14 -37 3 -13 2 -22 -3 -19 -4 2 -16
-11 -26 -29 -11 -19 -23 -32 -29 -28 -6 4 -7 1 -2 -6 7 -13 -25 -51 -43 -51
-6 0 -12 -9 -15 -20 -3 -13 -11 -18 -20 -14 -8 3 -18 0 -22 -6 -6 -9 -10 -9
-16 1 -8 12 -10 12 -18 1 -7 -11 -9 -11 -14 2 -4 9 -14 16 -22 16 -9 0 -14 -4
-11 -9 3 -5 -1 -14 -9 -21 -13 -11 -14 -10 -9 4 6 17 -11 23 -20 7 -7 -11 -46
-2 -46 10 0 14 -38 11 -43 -3 -3 -7 -6 -3 -6 8 -1 16 -10 23 -33 29 -18 4 -27
9 -20 12 18 7 14 25 -5 22 -33 -5 -75 11 -69 26 3 8 1 15 -4 15 -6 0 -10 8
-11 18 0 14 -2 14 -9 -3 -5 -11 -9 -14 -9 -7 -1 9 -8 11 -23 7 -37 -11 -47
-27 -13 -20 19 4 25 3 17 -2 -9 -7 -6 -13 13 -23 25 -13 35 -32 14 -27 -6 1
-13 -3 -16 -9 -2 -7 6 -10 24 -7 19 3 24 2 15 -5 -19 -13 26 -81 54 -82 11 0
24 -4 30 -9 5 -5 37 -11 71 -13 35 -2 63 -6 63 -10 0 -4 6 -5 14 -2 8 3 23 1
33 -4 11 -7 24 -7 35 -1 10 6 19 5 23 -1 3 -6 17 -7 30 -4 21 5 23 3 18 -18
l-6 -23 21 25 c12 14 21 19 22 12 0 -18 80 0 80 18 0 5 10 7 23 4 21 -3 23 0
20 29 -2 17 0 26 3 20 4 -10 8 -10 19 0 7 6 22 18 33 26 12 8 19 18 16 22 -2
4 0 10 6 14 5 3 10 12 10 18 0 7 -4 6 -10 -3 -8 -12 -10 -11 -10 8 0 12 5 21
12 20 6 -2 13 10 14 25 4 35 30 77 48 77 15 0 11 -36 -6 -46 -5 -3 -1 -12 8
-19 10 -7 18 -21 19 -31 1 -11 6 -32 10 -48 6 -21 5 -27 -4 -22 -13 8 -14 -3
-3 -22 5 -7 16 -10 25 -6 12 4 17 1 17 -10 0 -9 -7 -16 -15 -16 -22 0 -18 -25
6 -41 23 -16 30 -81 15 -154 -5 -25 -4 -35 2 -27 7 11 10 10 16 -3 10 -26 7
-33 -11 -39 -11 -3 -7 -4 7 -3 18 1 24 7 22 19 -2 12 2 16 13 12 8 -3 15 -1
15 5 0 16 17 13 24 -4 3 -8 2 -14 -2 -13 -4 1 -17 -4 -30 -11 -19 -10 -21 -15
-11 -27 10 -12 9 -17 -1 -27 -10 -9 -11 -9 -6 0 4 7 -2 17 -13 22 -24 13 -45
-8 -34 -35 6 -17 7 -17 13 1 4 12 9 15 13 8 4 -6 1 -18 -7 -26 -9 -8 -11 -19
-6 -27 6 -9 3 -19 -8 -27 -16 -12 -16 -13 0 -7 18 6 34 -27 22 -48 -5 -10 -4
-10 6 -1 9 8 18 9 25 3 6 -5 16 -5 25 0 13 8 12 10 -2 10 -9 0 -20 5 -23 10
-4 7 3 8 21 4 16 -4 34 -7 41 -7 7 0 13 -4 13 -9 0 -5 9 -6 20 -3 13 4 22 1
25 -8 3 -7 11 -14 18 -15 7 0 23 -4 37 -7 14 -4 37 -8 51 -8 16 -1 25 -6 22
-13 -2 -7 0 -15 5 -18 6 -3 13 5 16 19 4 14 11 25 17 25 8 0 8 -4 0 -14 -6 -7
-9 -20 -7 -27 3 -8 7 -33 9 -55 3 -35 1 -41 -14 -37 -14 4 -22 -8 -39 -69 -12
-40 -27 -77 -32 -83 -8 -7 -9 -6 -5 1 9 16 -17 36 -36 28 -9 -3 -14 -11 -11
-19 3 -7 -2 -15 -10 -18 -11 -4 -16 -1 -16 10 0 14 -2 14 -16 -3 -8 -10 -13
-14 -10 -9 2 6 -5 17 -17 25 -20 12 -21 12 -8 -3 14 -18 13 -19 -31 -21 -30
-2 -34 4 -17 21 8 8 7 13 -2 18 -8 6 -10 4 -5 -6 4 -8 0 -5 -9 6 -9 11 -21 19
-26 18 -5 -2 -9 2 -9 7 0 6 -5 10 -11 10 -5 0 -8 -4 -5 -9 4 -5 -2 -8 -11 -6
-10 1 -16 9 -15 16 10 39 9 48 -6 62 -39 36 -175 62 -387 77 -66 4 -163 13
-215 19 -52 6 -138 16 -190 22 -52 6 -167 12 -255 15 -231 5 -474 22 -594 41
l-103 17 -18 -24 c-11 -14 -22 -20 -30 -15 -18 11 -6 82 18 108 11 12 23 31
26 42 6 20 100 128 95 110 -13 -54 70 -55 178 -1 40 20 75 36 77 36 7 0 79 50
86 59 12 17 82 52 95 48 7 -3 15 -3 17 1 2 4 20 15 42 25 27 13 42 15 51 7 19
-16 112 17 120 44 6 21 6 21 15 1 7 -14 8 -9 3 19 -4 28 -3 37 6 32 6 -4 11
-2 11 3 0 6 10 11 23 12 20 1 19 2 -8 14 -27 13 -27 14 -7 15 l22 0 -20 20
c-19 19 -19 22 -5 37 18 18 12 31 -7 16 -19 -14 -41 -10 -45 7 -4 12 -3 13 5
1 8 -11 12 -10 21 7 10 18 9 20 -12 16 -13 -2 -32 3 -43 11 -11 8 -14 15 -6
15 22 0 13 20 -10 20 -17 0 -19 3 -9 9 7 5 10 14 7 20 -4 6 -3 11 2 11 6 0 12
-6 15 -14 6 -15 54 -19 63 -5 3 5 -2 6 -10 3 -9 -3 -16 -2 -16 4 0 14 26 23
47 16 17 -5 17 -5 0 6 -10 6 -23 9 -30 7 -7 -2 -23 0 -36 5 -17 6 -27 5 -33
-4 -6 -10 -10 -10 -18 2 -7 11 -5 17 8 22 15 6 15 7 -2 7 -12 1 -16 6 -12 16
3 8 1 15 -4 15 -6 0 -10 11 -10 25 0 18 4 23 15 19 8 -4 15 -1 15 5 0 6 -4 11
-10 11 -18 0 -10 16 14 29 16 9 22 19 19 32 -5 18 11 27 20 12 2 -5 2 -2 0 5
-3 16 25 62 39 62 16 0 68 61 68 80 0 22 36 33 63 19 15 -9 18 -8 15 2 -9 27
35 52 45 27 3 -8 6 -6 6 5 1 14 6 16 27 11 16 -4 29 -2 33 5 4 6 15 9 24 5 9
-3 14 -11 10 -17 -4 -6 -1 -7 6 -3 16 10 42 -24 35 -45 -2 -10 2 -19 11 -23
10 -3 13 -11 9 -18 -5 -7 3 -6 18 4 l26 17 6 -37 c6 -38 36 -105 49 -109 4 -2
11 -3 16 -3 5 0 12 -7 15 -16 5 -12 2 -15 -9 -10 -10 3 -13 2 -10 -5 4 -6 13
-8 20 -5 8 3 19 -2 25 -10 7 -8 9 -14 5 -14 -4 0 -2 -6 4 -13 6 -8 8 -16 5
-19 -9 -10 51 -6 62 3 8 6 14 3 18 -8 6 -15 8 -15 16 -3 14 21 12 32 -2 24
-10 -5 -10 -4 -1 6 6 7 9 20 6 29 -4 14 -3 14 6 1 11 -16 26 -7 27 18 1 17 9
40 38 102 9 19 14 28 12 19 -2 -9 0 -22 5 -30 7 -11 9 -10 9 4 0 14 5 17 23
13 12 -3 16 -3 10 0 -19 9 -16 21 8 27 14 4 18 10 13 18 -6 10 -9 10 -12 1 -7
-21 -17 -13 -19 15 -1 19 1 22 8 12 7 -12 9 -12 10 1 1 8 3 22 4 30 1 8 3 21
4 28 0 7 5 11 10 7 5 -3 13 0 16 6 4 5 13 8 20 5 8 -3 12 4 11 20 -1 29 -26
33 -26 4 0 -29 -17 -25 -22 5 -4 18 -1 25 10 25 12 0 12 3 2 15 -12 15 -11 16
12 19 6 0 13 7 16 15 3 8 0 11 -6 7 -6 -3 -14 -1 -18 5 -4 7 -3 9 4 5 6 -3 13
-2 17 4 4 6 11 7 17 4 7 -5 9 -2 5 8 -4 11 1 16 19 16 13 0 27 -5 30 -10z
m-3356 -118 c22 -6 23 -8 8 -15 -26 -10 -23 -34 3 -28 15 4 22 0 26 -18 5 -19
7 -20 12 -6 6 15 9 15 36 -3 20 -13 24 -20 14 -20 -9 0 -19 -6 -22 -12 -5 -15
6 -50 16 -49 22 3 27 -1 27 -16 0 -15 2 -16 10 -3 6 10 10 11 10 3 0 -7 7 -13
15 -13 8 0 15 -4 15 -10 0 -5 -6 -10 -12 -10 -9 0 -9 -3 -2 -8 17 -12 23 -39
11 -51 -8 -8 -8 -11 1 -11 7 0 12 -7 12 -15 0 -8 -5 -15 -11 -15 -6 0 -8 -9
-4 -21 4 -13 2 -25 -5 -29 -9 -6 -6 -10 9 -15 16 -5 27 -1 36 12 8 10 15 14
15 10 0 -4 -12 -19 -26 -32 -15 -14 -21 -25 -14 -25 10 0 10 -3 0 -15 -9 -11
-9 -15 -1 -15 7 0 9 -5 4 -12 -4 -7 -8 -34 -9 -60 -2 -37 1 -46 12 -41 8 3 14
0 14 -6 0 -7 -7 -14 -15 -17 -8 -4 -15 -10 -15 -15 0 -5 7 -9 15 -9 17 0 20
-16 6 -24 -11 -7 16 -66 29 -66 5 0 24 -13 42 -30 18 -16 40 -30 50 -30 10 0
18 -6 18 -14 0 -13 15 -21 93 -47 21 -8 46 -21 56 -31 11 -9 21 -15 23 -12 3
2 11 -7 18 -21 7 -14 17 -25 22 -25 4 0 18 -12 31 -26 28 -33 120 -77 171 -81
33 -2 37 -1 26 12 -7 8 -8 15 -3 15 5 0 7 15 5 33 -2 22 2 38 12 46 20 17 46
7 46 -17 0 -11 9 -30 19 -44 11 -13 23 -36 26 -50 3 -13 16 -31 27 -39 81 -56
130 -121 117 -156 -11 -29 -34 -34 -104 -21 -98 18 -239 17 -420 -3 -93 -10
-219 -19 -280 -19 -60 0 -139 -4 -175 -9 -36 -5 -112 -12 -170 -16 -58 -3
-143 -10 -190 -16 -122 -14 -298 -29 -307 -27 -23 6 -108 -16 -148 -38 -47
-27 -54 -46 -30 -78 8 -11 15 -29 15 -40 0 -14 -3 -17 -8 -9 -6 10 -27 13
-115 14 -9 0 -15 4 -12 8 6 11 -32 22 -50 15 -7 -3 -11 -15 -8 -27 3 -14 -4
-8 -19 16 -22 35 -26 37 -40 24 -14 -14 -16 -12 -27 22 -6 21 -11 71 -11 111
0 63 2 72 20 77 11 3 20 9 20 12 0 12 34 9 42 -3 6 -8 8 -8 8 0 0 6 11 10 25
9 14 -2 25 0 25 4 0 4 8 7 18 7 9 1 30 4 45 7 16 3 37 1 47 -5 14 -9 23 -6 46
15 16 15 25 27 21 27 -4 0 1 10 13 22 11 12 20 28 20 35 0 7 5 13 10 13 6 0
10 13 10 28 0 16 3 32 7 36 4 4 8 33 8 66 1 43 6 65 20 81 11 12 14 19 8 15
-7 -4 -13 -2 -13 4 0 7 8 9 20 5 16 -5 20 -2 20 18 0 14 7 30 15 37 10 9 15 9
15 1 0 -6 -4 -11 -10 -11 -21 0 -9 -19 18 -28 18 -7 21 -11 9 -11 -46 -2 19
-31 78 -35 11 -1 26 -5 33 -9 8 -5 12 -2 13 10 1 13 3 11 9 -7 l8 -25 7 23 c6
17 10 20 21 11 10 -8 17 -7 28 3 8 9 37 16 67 17 36 1 56 7 65 19 11 16 13 16
32 -2 20 -17 20 -17 15 3 -6 22 12 30 20 9 3 -7 6 -4 6 7 1 17 3 18 12 5 9
-12 12 -13 16 -1 5 11 7 11 15 0 7 -10 8 -5 4 16 -5 23 -4 26 4 15 9 -13 12
-13 21 3 5 9 19 17 30 17 13 0 18 -4 13 -12 -4 -7 -3 -8 4 -4 20 12 13 26 -14
26 -15 0 -23 4 -19 11 4 6 13 8 21 5 8 -3 14 -1 14 5 0 5 11 21 25 35 14 14
25 21 25 16 0 -4 -4 -12 -10 -18 -6 -6 -6 -15 0 -24 8 -13 11 -12 16 6 4 15
12 20 30 18 13 -1 22 2 18 7 -3 5 0 9 5 9 6 0 11 5 11 12 0 6 -7 4 -18 -5 -23
-21 -32 -21 -32 -1 0 8 4 13 9 9 5 -3 13 0 16 6 4 6 -2 13 -13 16 -30 7 -16
31 21 36 21 2 14 4 -20 5 -32 1 -53 -2 -53 -9 0 -5 6 -7 13 -3 7 4 8 3 4 -2
-5 -5 -18 -9 -30 -9 -26 0 -34 -22 -10 -28 12 -3 8 -5 -9 -6 -16 0 -28 4 -28
10 0 5 -5 7 -11 3 -7 -4 -7 -9 -2 -13 6 -3 10 -13 10 -23 0 -13 -5 -14 -24 -7
-32 12 -33 12 -27 -6 7 -18 -7 -20 -24 -3 -9 9 -12 9 -12 0 0 -7 -12 -12 -26
-12 -14 0 -23 -4 -19 -10 6 -10 -14 -14 -45 -10 -10 1 -9 -3 5 -14 17 -13 18
-15 3 -16 -9 0 -24 -3 -34 -7 -13 -5 -16 -3 -11 10 3 9 2 19 -2 22 -5 3 -11
-2 -15 -10 -9 -24 -33 -18 -40 10 -7 26 -20 32 -31 15 -3 -5 2 -10 11 -10 10
0 15 -3 11 -6 -3 -3 -15 -3 -26 1 -16 5 -20 13 -17 31 4 21 2 23 -18 18 -17
-4 -23 -1 -23 13 0 10 5 22 11 26 6 5 1 5 -11 2 -19 -5 -22 -3 -16 11 5 13 3
16 -9 11 -13 -4 -16 -1 -12 18 2 14 -3 31 -13 40 -16 16 -16 18 0 27 24 13 5
48 -24 43 -13 -3 -19 0 -16 8 3 7 10 11 16 9 7 -1 11 5 9 14 -2 10 4 18 14 19
20 3 55 35 39 35 -5 0 -13 -5 -16 -10 -4 -6 -11 -7 -17 -4 -7 4 -8 2 -4 -4 11
-18 0 -14 -15 5 -8 10 -9 14 -2 10 6 -4 14 -3 18 3 3 5 16 10 27 10 29 0 17 9
-15 12 -15 1 -27 6 -27 10 0 4 14 5 32 1 22 -4 29 -3 24 5 -5 8 -1 10 10 5 11
-4 15 -3 11 4 -4 6 -1 14 5 17 7 3 2 3 -12 0 -19 -4 -22 -3 -10 5 13 10 13 11
0 11 -13 0 -13 1 0 10 8 5 15 17 15 26 0 10 6 19 14 22 8 3 11 0 7 -7 -4 -6
-1 -11 6 -11 7 -1 2 -10 -12 -21 -22 -18 -22 -21 -5 -17 15 2 21 -3 23 -24 2
-16 7 -28 12 -28 5 0 7 7 4 15 -4 8 -1 15 6 15 6 0 9 -4 6 -8 -2 -4 -1 -14 5
-22 7 -12 9 -11 9 5 1 19 1 19 15 1 13 -18 14 -17 21 9 5 19 9 23 15 14 4 -7
6 -16 4 -19 -2 -4 2 -7 8 -7 8 0 12 10 9 27 -3 18 1 29 12 33 9 4 16 2 16 -3
0 -23 18 -7 24 21 3 17 10 28 15 24 6 -3 15 5 22 17 7 13 18 27 26 31 7 5 11
12 8 17 -3 5 5 16 17 24 12 9 17 16 10 16 -6 0 -12 5 -12 10 0 6 7 10 15 10 8
0 15 5 15 11 0 5 -4 7 -10 4 -5 -3 -10 4 -10 15 0 13 8 24 20 27 11 3 20 12
20 19 0 8 5 14 10 14 6 0 10 -4 10 -10 0 -5 7 -7 16 -3 13 5 13 7 2 14 -10 7
-7 14 12 33 27 27 32 28 70 16z m70 -24 c0 -3 -4 -8 -10 -11 -5 -3 -10 -1 -10
4 0 6 5 11 10 11 6 0 10 -2 10 -4z m-537 -123 c-7 -2 -21 -2 -30 0 -10 3 -4 5
12 5 17 0 24 -2 18 -5z m-17 -50 c-3 -4 -6 -1 -6 6 0 7 -4 9 -10 6 -11 -7 -14
8 -3 19 4 3 11 -1 16 -9 5 -9 6 -19 3 -22z m14 -57 c0 -11 -19 -15 -25 -6 -3
5 1 10 9 10 9 0 16 -2 16 -4z m2867 -18 c-3 -8 -6 -5 -6 6 -1 11 2 17 5 13 3
-3 4 -12 1 -19z m-2892 -28 c3 -5 1 -10 -4 -10 -6 0 -11 5 -11 10 0 6 2 10 4
10 3 0 8 -4 11 -10z m100 1 c3 -5 1 -12 -5 -16 -5 -3 -10 1 -10 9 0 18 6 21
15 7z m595 -26 c0 -8 -4 -15 -10 -15 -5 0 -10 7 -10 15 0 8 5 15 10 15 6 0 10
-7 10 -15z m-724 -192 c-4 -4 -12 -1 -19 7 -9 10 -9 11 1 6 7 -4 12 -2 13 6 0
11 2 11 6 0 3 -7 2 -16 -1 -19z m2904 -28 c-7 -8 -18 -15 -24 -15 -6 0 -3 5 7
11 9 5 17 18 18 27 0 11 2 12 6 4 3 -7 -1 -19 -7 -27z m1340 5 c0 -5 -5 -10
-11 -10 -5 0 -7 5 -4 10 3 6 8 10 11 10 2 0 4 -4 4 -10z m-90 -30 c-17 -11 -9
-13 14 -4 9 3 14 10 11 14 -6 9 54 4 63 -5 12 -11 -7 -16 -26 -6 -15 8 -23 6
-37 -9 -18 -19 -17 -20 14 -16 23 2 29 0 21 -9 -6 -8 -6 -15 2 -23 6 -6 8 -15
3 -19 -4 -5 -10 -2 -12 5 -3 6 -11 12 -18 12 -19 0 -58 57 -45 65 6 4 7 12 4
18 -4 8 -2 7 7 -1 12 -11 12 -14 -1 -22z m90 -65 c0 -14 -2 -25 -4 -25 -2 0
-6 11 -8 25 -3 14 -1 25 3 25 5 0 9 -11 9 -25z m-1273 9 c-3 -3 -12 -4 -19 -1
-8 3 -5 6 6 6 11 1 17 -2 13 -5z m1303 -15 c0 -5 -4 -9 -8 -9 -5 0 -9 7 -9 15
0 8 4 12 9 9 4 -3 8 -9 8 -15z m-140 -4 c11 -13 10 -14 -4 -9 -9 3 -16 10 -16
15 0 13 6 11 20 -6z m60 -10 c0 -9 6 -12 18 -8 15 6 14 3 -3 -16 -22 -25 -56
-46 -54 -34 4 22 -3 23 -21 2 -16 -19 -19 -20 -13 -5 4 13 3 17 -5 12 -6 -3
-13 -2 -17 4 -3 5 1 10 10 10 12 0 15 5 11 18 -5 14 -4 14 9 -2 11 -14 15 -16
15 -5 1 10 3 9 11 -3 5 -10 15 -18 20 -18 6 0 7 5 4 10 -3 6 -2 10 4 10 6 0 8
7 5 15 -4 8 -10 13 -14 10 -5 -3 -11 -2 -14 3 -2 4 4 9 15 9 10 1 19 -5 19
-12z m-97 -8 c3 -8 -1 -14 -8 -14 -7 0 -11 6 -8 14 3 7 6 13 8 13 2 0 5 -6 8
-13z m137 -27 c0 -5 -4 -10 -10 -10 -5 0 -10 5 -10 10 0 6 5 10 10 10 6 0 10
-4 10 -10z m22 -23 c-7 -8 -8 -18 -4 -22 4 -5 1 -5 -5 -1 -16 9 -17 36 -2 36
5 0 7 6 3 13 -5 9 -4 9 6 0 10 -9 10 -15 2 -26z m-3031 -4 c13 -16 12 -17 -3
-4 -10 7 -18 15 -18 17 0 8 8 3 21 -13z m-891 -3 c0 -5 -7 -10 -16 -10 -8 0
-12 5 -9 10 3 6 10 10 16 10 5 0 9 -4 9 -10z m3887 3 c-4 -3 3 -17 15 -30 12
-13 17 -23 11 -23 -5 0 -15 -11 -21 -25 -7 -15 -8 -25 -2 -25 6 0 10 -5 10
-11 0 -5 -4 -8 -9 -4 -5 3 -13 0 -17 -6 -5 -8 1 -10 19 -7 19 4 24 1 20 -9 -3
-8 -14 -13 -24 -10 -12 3 -16 0 -13 -12 2 -9 -3 0 -12 19 -9 19 -19 30 -21 23
-2 -7 -11 -9 -20 -6 -11 4 -14 2 -9 -5 4 -7 2 -12 -3 -12 -15 0 -14 13 2 29 7
9 7 11 1 8 -7 -4 -14 0 -18 8 -3 8 -13 15 -23 15 -16 1 -15 3 4 19 12 10 19
22 15 25 -8 8 17 26 36 26 7 0 10 -5 6 -12 -5 -7 -3 -8 6 -3 8 5 18 1 26 -10
12 -16 11 -21 -4 -38 -12 -14 -13 -19 -3 -15 8 2 21 14 28 25 13 19 12 24 -6
42 -25 25 -26 31 -4 31 9 0 13 -3 10 -7z m-124 -44 c-25 -9 -32 -3 -26 21 5
20 6 20 25 3 18 -16 18 -18 1 -24z m-4176 5 c-3 -3 -12 -4 -19 -1 -8 3 -5 6 6
6 11 1 17 -2 13 -5z m4195 -86 c-7 -7 -12 -8 -12 -2 0 6 3 14 7 17 3 4 9 5 12
2 2 -3 -1 -11 -7 -17z m59 -27 c-11 -7 -10 -10 5 -14 10 -2 4 -4 -14 -3 -28 1
-30 3 -15 14 9 6 22 12 27 12 6 0 5 -4 -3 -9z m-73 -20 c26 -23 28 -31 6 -31
-8 0 -13 4 -9 9 3 5 -5 17 -17 25 -12 9 -18 16 -13 16 6 -1 20 -9 33 -19z m93
-18 c-11 -5 -11 -7 0 -14 11 -7 11 -9 -2 -9 -9 0 -19 7 -23 15 -4 11 1 15 17
14 13 0 16 -3 8 -6z m-96 -31 c-3 -3 -11 0 -18 7 -9 10 -8 11 6 5 10 -3 15 -9
12 -12z m35 -2 c0 -5 -2 -10 -4 -10 -3 0 -8 5 -11 10 -3 6 -1 10 4 10 6 0 11
-4 11 -10z m40 -10 c0 -5 -5 -10 -11 -10 -5 0 -7 5 -4 10 3 6 8 10 11 10 2 0
4 -4 4 -10z m38 -10 c15 0 15 -2 2 -10 -23 -15 -30 -12 -29 13 0 12 3 16 6 10
2 -7 12 -13 21 -13z m-34 -25 c17 -13 15 -14 -15 -13 -19 1 -28 3 -21 5 6 3
10 9 6 14 -8 13 8 10 30 -6z m56 -10 c0 -8 -4 -15 -9 -15 -13 0 -22 16 -14 24
11 11 23 6 23 -9z m-115 -15 c-3 -5 -1 -10 5 -10 6 0 8 -5 4 -11 -4 -8 -9 -7
-15 2 -7 12 -3 29 7 29 3 0 2 -4 -1 -10z m58 -13 c-3 -5 4 -6 17 -2 15 5 20 4
16 -4 -4 -6 -16 -11 -27 -11 -10 0 -18 -5 -16 -11 1 -6 -5 -13 -13 -14 -10 -2
-15 6 -15 26 -1 23 3 28 21 27 13 -1 20 -6 17 -11z m-99 -13 c8 -21 8 -24 -3
-24 -5 0 -11 9 -14 20 -6 24 8 27 17 4z m117 -37 c-10 -9 -11 -8 -5 6 3 10 9
15 12 12 3 -3 0 -11 -7 -18z m-126 -18 c4 -6 1 -9 -6 -8 -8 2 -25 -2 -39 -9
-22 -12 -23 -11 -8 1 10 8 15 17 11 20 -3 4 3 7 15 7 11 0 24 -5 27 -11z m140
-9 c3 -5 4 -10 1 -10 -2 0 -12 -3 -20 -6 -12 -5 -15 -2 -10 10 7 18 20 21 29
6z m-145 -26 c0 -8 5 -12 10 -9 6 3 10 4 10 1 0 -16 -21 -13 -30 4 -7 13 -7
20 0 20 5 0 10 -7 10 -16z m-23 -26 c-3 -8 -6 -5 -6 6 -1 11 2 17 5 13 3 -3 4
-12 1 -19z m150 16 c-3 -3 -12 -4 -19 -1 -8 3 -5 6 6 6 11 1 17 -2 13 -5z
m-52 -42 c-3 -3 -11 0 -18 7 -9 10 -8 11 6 5 10 -3 15 -9 12 -12z m-4705 -132
c0 -5 -7 -7 -15 -4 -8 4 -15 8 -15 10 0 2 7 4 15 4 8 0 15 -4 15 -10z m-25
-18 c-3 -3 -11 0 -18 7 -9 10 -8 11 6 5 10 -3 15 -9 12 -12z m3076 -89 c13
-15 12 -15 -8 -4 -24 12 -29 21 -14 21 5 0 15 -7 22 -17z m-1168 -10 c-7 -2
-19 -2 -25 0 -7 3 -2 5 12 5 14 0 19 -2 13 -5z m45 -26 c9 3 14 3 10 -2 -4 -4
-3 -15 4 -22 7 -9 8 -17 2 -21 -5 -4 -9 -24 -9 -44 0 -21 -3 -38 -7 -38 -5 0
-8 5 -8 12 0 6 -8 20 -17 31 -11 13 -12 17 -4 12 11 -6 13 -4 8 8 -7 17 15 41
28 29 5 -4 5 -2 1 5 -5 9 -14 9 -32 3 -15 -6 -23 -6 -19 -1 3 5 0 13 -5 16 -7
5 -5 12 7 20 15 11 19 11 21 0 2 -8 10 -11 20 -8z m1702 -3 c0 -8 7 -14 15
-14 8 0 15 -5 15 -11 0 -5 10 -9 23 -7 14 2 22 -2 22 -12 1 -26 36 -88 48 -86
7 1 17 5 24 9 7 5 9 0 6 -14 -3 -12 -11 -18 -19 -15 -18 7 -18 -5 1 -30 14
-19 14 -19 15 1 0 16 2 17 9 6 5 -8 7 -20 4 -27 -3 -9 2 -12 17 -9 17 3 20 1
14 -17 -4 -13 -2 -18 4 -14 6 4 10 -2 9 -13 0 -11 -5 -17 -11 -14 -5 4 -7 -1
-3 -11 4 -10 7 -22 7 -27 0 -5 8 -9 18 -10 10 0 12 -3 5 -6 -7 -2 -13 -9 -13
-14 0 -6 5 -7 10 -4 6 3 10 -4 10 -16 0 -12 3 -20 6 -16 3 3 16 -3 27 -14 11
-10 23 -15 26 -10 6 9 43 -12 42 -23 -3 -25 1 -36 14 -36 18 0 20 -16 3 -24
-7 -3 -2 -3 11 0 16 4 21 3 17 -5 -4 -6 -13 -11 -21 -11 -18 0 -28 -17 -19
-32 5 -7 11 -5 21 7 7 11 13 13 13 7 0 -7 4 -12 10 -12 5 0 6 7 3 17 -4 10 -2
14 4 10 10 -6 28 19 25 35 -2 10 50 63 76 77 12 7 21 19 20 28 -2 11 6 19 22
24 14 4 18 8 10 8 -10 1 -11 4 -4 9 13 8 15 42 2 42 -4 0 -8 5 -8 10 0 6 7 10
15 10 9 0 15 10 16 23 0 12 3 16 6 10 2 -7 9 -13 14 -13 6 0 5 9 -2 21 -10 19
-8 20 10 14 18 -5 21 -2 21 24 0 17 4 31 9 31 5 0 12 9 16 19 7 22 33 36 32
18 -1 -38 4 -57 14 -52 6 4 7 19 4 36 -5 21 -3 29 8 29 22 0 26 -10 15 -42 -7
-20 -7 -33 0 -40 13 -13 -6 -60 -20 -51 -6 3 -5 -4 1 -16 9 -16 9 -20 -2 -15
-10 4 -16 -7 -21 -35 -3 -23 -10 -41 -15 -41 -4 0 -13 -11 -19 -25 -14 -29
-10 -31 14 -8 16 16 16 16 10 -5 -5 -14 -3 -22 4 -22 6 0 8 -5 4 -11 -4 -8 -9
-7 -15 2 -13 20 -28 -6 -24 -40 1 -17 -6 -34 -21 -48 -13 -12 -21 -28 -18 -36
3 -8 -2 -21 -10 -28 -9 -8 -23 -40 -32 -71 -10 -34 -21 -55 -27 -51 -6 4 -8
-3 -3 -20 3 -14 1 -29 -4 -32 -6 -4 -20 -24 -31 -47 -14 -28 -25 -38 -36 -34
-11 4 -14 2 -9 -9 3 -8 1 -15 -4 -15 -6 0 -10 5 -10 10 0 6 -4 10 -10 10 -5 0
-10 -7 -10 -15 0 -8 -5 -15 -11 -15 -5 0 -8 4 -5 8 2 4 -4 8 -14 8 -11 0 -17
-2 -15 -4 2 -3 -3 -12 -12 -21 -11 -11 -18 -12 -20 -4 -3 7 -10 10 -18 7 -8
-3 -11 -12 -8 -20 3 -8 -1 -14 -11 -14 -9 0 -16 7 -16 15 0 8 -5 15 -11 15 -7
0 -9 10 -6 25 4 24 3 24 -13 10 -19 -18 -46 -20 -56 -4 -4 8 0 9 15 4 16 -5
20 -3 15 9 -3 9 -12 16 -19 16 -7 0 -15 9 -18 20 -3 11 -13 20 -22 20 -12 0
-15 5 -10 20 4 11 2 20 -4 20 -6 0 -20 9 -31 20 -11 11 -17 20 -13 20 4 0 -3
7 -16 16 -14 11 -21 23 -18 35 4 16 2 17 -14 8 -10 -5 -19 -18 -19 -29 0 -10
-6 -21 -12 -23 -8 -3 -6 -6 5 -6 9 -1 17 4 17 10 0 5 5 7 10 4 6 -4 8 -11 5
-16 -4 -5 -1 -9 4 -9 6 0 11 -9 11 -20 0 -11 5 -20 12 -20 9 0 9 -3 0 -12 -7
-7 -11 -21 -11 -32 1 -17 2 -18 6 -3 4 17 24 23 36 10 4 -3 2 -12 -4 -19 -8
-9 -5 -15 10 -23 12 -7 18 -19 16 -31 -2 -11 0 -22 5 -25 5 -3 8 -11 6 -18 -1
-7 -1 -9 1 -4 7 12 23 -3 23 -22 0 -10 9 -26 19 -35 15 -14 24 -15 40 -6 14 7
21 7 21 0 0 -5 -4 -10 -10 -10 -5 0 -10 -4 -10 -10 0 -9 23 -18 61 -23 8 -2
19 -6 26 -10 7 -4 13 0 16 10 3 11 6 6 7 -12 2 -30 2 -30 10 -5 7 21 8 22 10
5 l1 -20 9 20 c8 18 9 18 9 -5 1 -18 4 -21 10 -11 5 7 11 9 14 4 3 -5 25 -8
48 -7 33 1 44 6 51 23 4 11 10 21 14 21 3 0 4 -7 0 -15 -3 -10 1 -15 13 -15
14 0 33 29 28 43 0 1 5 12 12 25 8 15 18 21 27 18 9 -3 12 -1 9 4 -3 6 0 10 7
10 10 0 9 3 -2 10 -8 5 -12 12 -9 15 10 9 39 -6 39 -21 0 -8 5 -14 10 -14 6 0
10 6 10 13 0 8 3 9 8 1 4 -6 20 -14 36 -18 27 -7 28 -8 10 -22 -14 -11 -15
-17 -6 -20 6 -3 12 -12 12 -20 0 -8 5 -14 10 -14 6 0 8 10 4 24 -3 13 -1 27 5
30 7 4 8 1 5 -8 -3 -9 -1 -16 5 -16 6 0 11 5 11 10 0 6 6 10 14 10 8 0 17 4
20 9 4 5 -3 7 -14 4 -15 -4 -19 -2 -14 10 5 13 0 15 -23 12 -15 -2 -23 -2 -16
1 7 3 9 13 6 22 -4 13 -2 12 10 -3 17 -20 17 -20 23 1 4 17 13 21 35 20 28 -2
28 -2 9 16 -10 10 -24 18 -30 18 -6 0 -9 4 -6 9 3 5 15 7 26 4 22 -6 29 22 8
30 -7 3 1 6 17 6 23 1 27 4 15 11 -13 8 -12 10 4 10 12 0 16 5 13 15 -4 8 -1
17 5 21 6 4 8 3 4 -4 -3 -6 -2 -13 4 -17 5 -3 10 -1 10 5 0 6 4 9 8 6 4 -2 14
0 22 5 13 8 12 9 -2 7 -9 -2 -17 0 -17 5 -2 23 0 29 13 24 10 -4 13 -1 9 9 -3
9 0 14 8 12 8 -2 13 4 13 14 -1 13 5 16 26 15 24 -2 26 -4 16 -21 -8 -14 -8
-20 2 -23 6 -3 9 -9 6 -15 -4 -6 2 -5 15 1 24 13 29 23 7 15 -8 -3 -17 -1 -20
4 -3 5 7 12 22 15 16 3 29 12 30 19 3 42 7 58 14 58 4 0 8 -9 8 -19 0 -11 8
-22 18 -24 13 -4 11 -5 -5 -6 -15 -1 -23 -7 -22 -18 0 -11 3 -13 6 -5 10 24
22 11 17 -18 -5 -22 -3 -30 7 -31 8 0 4 -4 -7 -9 -21 -8 -40 -50 -23 -50 5 0
9 -8 9 -17 0 -14 -2 -15 -9 -5 -6 10 -10 10 -21 -3 -11 -13 -10 -15 4 -9 9 3
16 1 16 -6 0 -6 4 -9 9 -6 4 3 6 -7 3 -21 l-5 -27 -9 23 c-13 36 -20 19 -7
-18 14 -39 -2 -65 -23 -42 -11 11 -10 13 4 8 12 -4 15 -2 11 9 -7 18 -27 13
-31 -8 -2 -10 8 -20 25 -26 19 -7 22 -11 9 -11 -11 -1 -16 -6 -13 -15 3 -7 0
-19 -6 -25 -6 -6 -12 -32 -13 -59 -1 -57 -12 -94 -25 -87 -5 4 -9 -8 -9 -24 0
-29 -11 -37 -42 -32 -14 2 -50 -80 -40 -92 10 -14 -10 -72 -21 -61 -4 4 -10
-7 -13 -24 -6 -31 -28 -49 -39 -32 -8 13 14 52 24 45 5 -2 11 3 14 13 2 9 8
26 13 37 4 11 -9 -1 -29 -28 -38 -48 -45 -71 -27 -82 6 -4 8 -11 4 -16 -8 -14
-33 22 -27 38 8 21 -1 15 -33 -19 -18 -19 -23 -29 -12 -25 9 3 22 -1 30 -10
11 -14 10 -16 -8 -11 -24 6 -49 -5 -49 -21 0 -22 -28 -48 -49 -45 -11 2 -16 2
-9 -2 21 -10 2 -34 -28 -34 -16 0 -29 -5 -29 -11 0 -6 -9 -8 -22 -3 -20 6 -21
5 -10 -8 10 -13 8 -16 -20 -17 -83 -3 -128 -8 -135 -14 -3 -4 -1 -7 5 -7 7 0
12 -8 12 -17 0 -14 -2 -15 -9 -4 -5 8 -14 10 -21 6 -9 -6 -11 -4 -5 5 5 8 3
11 -6 8 -8 -3 -13 -9 -12 -14 1 -5 -11 -9 -25 -10 -15 0 -71 -8 -125 -18 -78
-13 -109 -15 -154 -6 -73 13 -86 13 -77 -2 4 -7 3 -8 -5 -4 -6 4 -9 12 -6 17
6 8 -17 11 -107 14 -21 0 -43 7 -50 14 -11 11 -9 12 9 2 31 -16 43 -13 14 3
-26 14 -55 11 -45 -5 3 -5 -2 -6 -11 -3 -14 6 -14 8 2 21 13 10 14 13 3 10 -8
-2 -21 2 -28 10 -14 14 -36 8 -27 -8 3 -5 -1 -6 -10 -2 -12 4 -13 8 -4 13 8 6
6 11 -9 19 -25 13 -43 14 -22 1 11 -7 12 -12 3 -21 -12 -12 -37 -3 -28 11 10
15 -21 29 -60 26 -22 -2 -35 -2 -28 1 7 2 11 10 9 16 -1 7 -1 9 1 5 11 -19 22
-6 12 14 l-11 21 -14 -24 c-10 -19 -13 -20 -14 -6 0 9 -4 17 -10 17 -5 0 -10
4 -10 10 0 5 8 7 18 4 12 -4 11 0 -6 15 -16 14 -34 19 -58 17 -28 -2 -34 1
-34 17 0 11 -9 21 -22 25 -19 4 -19 6 -5 11 16 6 16 8 1 29 -11 16 -22 21 -35
17 -21 -7 -27 10 -6 18 6 3 2 6 -11 6 -12 1 -25 8 -29 17 -3 9 -13 14 -24 11
-10 -3 -18 -2 -17 2 2 22 -5 31 -24 32 -13 0 -17 3 -10 6 6 2 12 9 12 14 0 5
-10 4 -22 -2 -21 -11 -22 -11 -9 4 9 12 10 17 2 17 -9 0 -9 5 -1 20 8 16 8 18
-4 14 -8 -3 -17 -13 -20 -22 -3 -12 -4 -11 -3 3 2 21 -26 69 -35 60 -3 -3 -8
1 -11 9 -4 10 0 14 14 11 10 -2 19 0 19 6 0 5 -7 9 -15 9 -8 0 -15 6 -15 13 0
7 -3 8 -8 2 -11 -16 -32 -16 -32 -1 0 8 -14 29 -31 46 -24 23 -29 34 -20 43
14 14 15 30 1 22 -5 -3 -10 -1 -10 4 0 6 -7 11 -16 11 -13 0 -15 7 -12 32 3
18 -1 55 -8 83 -17 62 -17 63 -1 41 12 -16 13 -15 12 8 -1 14 -5 29 -8 33 -4
3 -7 17 -7 30 0 13 -4 23 -10 23 -5 0 -10 7 -10 15 0 8 -7 15 -15 15 -19 0
-19 5 1 36 14 20 14 23 2 19 -10 -4 -17 1 -21 14 -3 12 -1 21 4 21 5 0 2 11
-6 24 -9 13 -19 48 -23 78 -8 66 -7 427 2 435 10 11 17 -3 22 -47 3 -24 11
-61 19 -83 8 -22 11 -45 8 -50 -3 -6 -1 -7 5 -3 11 6 17 -12 13 -36 0 -5 5 -8
12 -8 8 0 7 -4 -3 -10 -12 -8 -12 -10 -1 -10 9 0 12 -9 9 -30 -2 -16 0 -32 6
-34 7 -3 5 -9 -4 -15 -8 -6 -10 -11 -4 -11 11 0 53 -118 55 -155 1 -16 2 -17
6 -3 4 16 5 16 22 0 10 -9 16 -21 13 -26 -3 -5 1 -6 9 -4 8 3 22 1 32 -4 12
-6 23 -6 31 1 8 7 24 7 47 1 47 -14 47 -14 54 21 6 28 8 29 19 12 7 -10 19
-40 27 -67 18 -63 118 -161 155 -152 12 3 26 1 29 -4 4 -6 12 -7 18 -3 7 4 17
8 22 9 61 6 135 60 135 98 0 9 7 12 20 9 11 -3 20 -1 20 5 0 16 33 24 42 10 6
-11 8 -10 8 0 0 7 4 11 9 8 16 -10 41 5 39 23 -2 9 3 15 10 13 6 -1 12 5 12
13 0 8 7 15 16 15 8 0 13 4 9 10 -3 5 -12 7 -21 3 -12 -4 -13 -1 -4 21 8 21 7
26 -6 26 -10 0 -14 6 -11 15 4 8 2 17 -4 21 -6 3 -8 12 -5 19 6 17 -19 39 -34
30 -5 -3 -10 -1 -10 4 0 6 7 11 15 11 8 0 15 4 15 9 0 5 -7 11 -15 15 -8 3
-15 0 -15 -6 0 -6 -13 6 -29 28 -29 37 -29 39 -10 48 22 10 27 28 5 20 -8 -3
-17 -1 -20 5 -4 6 -14 8 -24 5 -14 -5 -13 -2 3 11 20 17 20 17 -2 12 -16 -3
-23 -1 -23 10 0 8 3 12 8 10 4 -3 16 -1 27 4 17 7 17 8 -7 8 -16 1 -28 6 -28
11 0 6 7 10 16 8 10 -2 18 5 19 15 2 9 -1 17 -7 17 -7 0 -7 4 0 13 8 10 6 16
-9 25 -10 7 -19 8 -19 3 0 -5 6 -11 13 -14 6 -2 9 -8 5 -12 -12 -12 -28 5 -28
30 0 17 7 25 23 28 16 3 13 5 -10 6 -18 0 -33 6 -33 12 0 6 7 9 14 6 10 -4 13
-1 9 9 -3 9 4 24 16 35 17 16 20 24 10 35 -9 11 -8 14 5 14 10 0 15 -3 13 -7
-3 -5 -1 -17 4 -28 l8 -20 1 20 c2 11 2 23 1 28 0 4 8 7 19 7 11 0 20 -7 20
-15 0 -8 5 -15 11 -15 6 0 9 7 5 15 -5 14 15 20 52 16 6 -1 12 2 12 7 0 5 13
7 29 4 16 -2 32 1 35 7 9 14 36 3 36 -15z m-2353 -1 c2 -5 24 -7 50 -7 32 1
59 -5 80 -18 18 -11 36 -17 40 -15 17 11 63 -46 63 -77 0 -24 -27 -69 -33 -54
-3 8 -6 6 -6 -5 -1 -22 -31 -61 -50 -65 -7 -1 -20 -9 -28 -17 -13 -13 -10 -15
22 -15 28 0 38 5 42 20 3 11 9 17 14 14 5 -3 7 -10 4 -15 -3 -5 1 -6 9 -3 9 3
16 1 16 -5 0 -6 -7 -11 -16 -11 -11 0 -14 -6 -9 -20 5 -14 2 -20 -9 -20 -19 0
-21 -17 -4 -22 7 -3 5 -7 -6 -11 -10 -4 -15 -3 -11 3 3 6 -3 10 -14 10 -10 0
-22 6 -24 13 -4 7 -6 6 -6 -5 -1 -9 4 -18 11 -20 6 -2 12 -14 13 -27 1 -12 8
-27 16 -32 14 -8 11 -10 -21 -13 -9 0 -16 -12 -17 -31 l-2 -30 9 30 c7 27 8
25 10 -20 1 -27 3 -65 3 -82 0 -18 4 -33 9 -33 5 0 6 -4 3 -10 -3 -5 1 -10 10
-10 13 0 16 -8 14 -32 -2 -18 2 -42 9 -53 11 -19 11 -19 12 4 0 35 11 19 12
-18 1 -19 6 -31 15 -31 7 0 13 -4 13 -10 0 -14 59 -42 72 -34 6 4 17 -1 25
-11 7 -11 13 -14 13 -7 0 6 6 9 13 7 6 -2 23 9 37 27 14 17 42 47 63 67 20 21
37 41 37 46 0 5 7 16 15 25 16 17 10 55 -6 44 -14 -9 -10 12 5 25 7 6 16 25
20 42 4 20 10 28 18 23 8 -5 9 -2 5 10 -6 14 -3 15 14 5 20 -10 20 -11 3 -30
-16 -18 -16 -19 -1 -13 15 5 16 1 13 -30 -3 -20 -7 -40 -10 -45 -3 -4 0 -8 7
-9 34 -4 56 -5 104 -3 46 1 52 4 62 29 10 26 11 26 6 -8 -5 -32 -3 -30 21 20
15 30 31 56 35 58 4 2 5 10 2 19 -5 12 -3 14 7 8 9 -5 11 -4 6 4 -4 6 -2 19 6
28 8 10 12 37 10 77 -2 33 2 75 8 91 11 29 26 93 35 147 6 36 37 107 50 112
11 4 12 -23 14 -274 1 -199 0 -181 4 -280 2 -47 0 -102 -4 -122 -3 -21 -2 -39
3 -40 6 -2 10 -20 10 -41 0 -20 4 -34 9 -31 5 3 9 0 9 -5 0 -6 -5 -11 -11 -11
-5 0 -8 -4 -4 -9 3 -5 0 -13 -7 -17 -7 -5 -4 -10 12 -16 30 -11 20 -21 -14
-12 -17 4 -26 13 -26 25 0 25 -20 24 -27 -1 -3 -11 -13 -20 -22 -19 -10 0 -11
2 -3 6 6 2 12 10 12 16 0 6 -16 -4 -35 -23 -19 -19 -35 -43 -35 -54 0 -10 -3
-16 -7 -12 -4 4 -13 -8 -19 -26 -6 -18 -16 -34 -22 -34 -25 -3 -26 -6 -7 -14
16 -7 16 -9 4 -9 -16 -1 -34 -27 -31 -43 1 -5 -2 -8 -7 -8 -5 0 -13 -15 -17
-32 -6 -29 -8 -31 -16 -13 -7 17 -8 15 -5 -8 4 -22 2 -25 -9 -16 -11 9 -14 6
-14 -14 0 -30 -18 -46 -31 -26 -6 10 -9 8 -9 -8 0 -13 -4 -23 -9 -23 -5 0 -11
-12 -13 -27 -2 -14 -9 -29 -17 -31 -8 -3 -11 0 -7 6 3 5 0 12 -7 15 -15 6 -17
-30 -3 -51 7 -12 4 -12 -14 -2 -20 11 -21 10 -15 -11 6 -18 4 -21 -9 -16 -9 4
-16 1 -16 -6 0 -9 -2 -9 -8 1 -6 9 -14 6 -31 -12 -17 -18 -19 -25 -9 -29 7 -3
9 -6 3 -6 -5 0 -17 3 -24 8 -12 8 -11 13 10 30 13 11 19 20 13 21 -6 0 -19 -9
-28 -19 -14 -15 -15 -24 -6 -40 8 -16 8 -21 -1 -21 -17 0 -49 -44 -37 -51 6
-4 -2 -6 -17 -6 -15 0 -32 -8 -37 -17 -5 -9 -19 -16 -31 -16 -12 0 -29 -5 -37
-11 -12 -8 -10 -9 8 -4 13 4 22 2 22 -4 0 -6 -7 -11 -15 -11 -8 0 -15 -5 -15
-11 0 -7 -10 -9 -25 -7 -14 3 -28 1 -31 -3 -3 -5 2 -9 11 -9 9 0 14 -4 10 -10
-3 -5 -12 -7 -20 -3 -10 3 -15 -1 -15 -13 -1 -18 -1 -18 -11 0 -9 14 -13 15
-19 6 -4 -7 -15 -10 -25 -7 -9 4 -13 12 -9 18 4 7 3 9 -4 6 -5 -4 -8 -16 -5
-27 6 -22 3 -23 -22 -14 -13 6 -14 9 -3 16 10 8 10 9 -1 6 -26 -7 -22 -24 6
-34 28 -10 28 -10 -8 -10 -29 1 -36 5 -34 18 3 11 -1 15 -11 11 -7 -3 -12 -8
-10 -12 2 -3 -3 -13 -12 -21 -14 -13 -15 -12 -9 3 4 11 1 17 -9 17 -9 0 -12
-5 -8 -12 5 -8 2 -9 -11 -4 -15 5 -16 4 -5 -9 11 -13 10 -14 -11 -7 -15 6 -48
3 -98 -10 -54 -14 -91 -18 -128 -13 -35 4 -53 3 -53 -4 0 -6 -5 -11 -11 -11
-5 0 -8 4 -4 10 3 5 -14 14 -37 20 -24 5 -59 14 -78 20 l-35 9 24 -18 c17 -13
19 -18 7 -18 -9 0 -16 5 -16 10 0 5 -7 7 -14 4 -10 -4 -13 -1 -10 7 6 16 -109
62 -127 50 -8 -4 -21 4 -36 22 -22 28 -23 28 -23 7 0 -13 -5 -23 -10 -23 -6 0
-10 8 -8 18 2 12 -3 16 -17 15 -11 -1 -31 7 -45 17 -21 16 -23 21 -12 32 11
11 12 9 7 -7 -6 -16 -5 -17 4 -5 9 13 11 12 11 -3 0 -10 4 -15 10 -12 5 3 19
1 30 -5 13 -7 20 -7 20 0 0 5 -5 10 -11 10 -6 0 -24 9 -40 21 -23 16 -33 18
-44 9 -12 -10 -13 -8 -10 9 2 13 0 19 -6 15 -5 -3 -19 6 -30 20 -21 27 -39 34
-39 16 0 -5 6 -10 14 -10 8 0 16 -6 19 -14 10 -25 -30 -6 -42 20 -14 31 -14
37 1 28 7 -4 8 -3 4 5 -6 9 -11 9 -22 0 -17 -14 -19 2 -1 20 10 11 8 11 -10 2
-25 -13 -43 3 -24 22 9 9 11 7 6 -8 -5 -15 -5 -17 3 -6 13 19 -22 71 -47 71
-12 0 -22 13 -31 39 -8 24 -18 37 -25 35 -8 -3 -19 12 -30 40 -9 24 -23 47
-31 50 -7 3 -17 23 -20 46 -4 22 -12 40 -18 40 -7 0 -6 3 2 8 13 9 12 38 -1
59 -4 6 -4 18 -1 27 3 9 1 16 -5 16 -6 0 -11 7 -11 16 0 9 5 12 13 8 9 -6 9
-4 -1 7 -14 15 -16 49 -3 49 5 0 12 -6 14 -12 3 -8 6 -6 6 5 1 10 -6 17 -17
17 -26 0 -46 64 -26 81 8 6 12 15 9 19 -3 5 -1 11 3 14 5 3 15 -12 22 -34 9
-28 17 -37 28 -32 11 4 14 1 9 -11 -3 -9 -2 -17 3 -17 6 0 10 -8 10 -17 0 -16
2 -16 10 -3 8 11 9 8 4 -12 -4 -18 -2 -28 6 -28 6 0 9 -4 5 -9 -11 -19 18 -24
32 -6 13 19 17 14 14 -17 -1 -10 4 -19 11 -19 70 -7 69 -7 72 -43 1 -21 5 -25
21 -19 18 5 19 4 5 -13 -8 -10 -10 -16 -6 -12 12 10 36 -10 30 -26 -3 -8 7
-10 36 -8 32 3 40 1 40 -12 0 -9 5 -16 11 -16 5 0 7 5 4 10 -3 6 0 10 8 10 20
0 60 68 61 104 1 16 9 34 19 40 15 9 23 6 44 -19 15 -16 29 -30 32 -31 3 0 17
-6 31 -12 l25 -11 -25 -1 c-17 -1 -10 -6 25 -16 64 -17 68 -17 61 2 -4 10 -2
13 7 7 16 -10 77 -10 77 0 0 5 5 5 12 1 8 -5 9 -2 5 9 -3 10 -2 17 4 17 6 0
17 7 26 16 9 8 22 13 29 10 8 -3 14 1 14 10 0 11 6 13 20 9 18 -6 20 -2 20 30
0 29 3 36 15 31 10 -3 17 3 21 20 5 19 9 22 15 12 7 -10 9 -10 9 0 0 8 5 10
12 6 8 -5 9 -2 5 9 -3 10 -2 17 2 17 5 0 11 -5 13 -12 2 -6 10 -8 17 -4 7 5
10 15 7 23 -3 8 -1 11 4 8 11 -7 31 35 23 48 -2 4 6 7 18 7 21 0 21 1 -5 25
-26 24 -26 25 -5 25 15 0 19 5 15 15 -3 10 1 15 11 15 15 0 15 2 0 18 -24 26
-21 39 9 46 24 6 26 10 19 44 -7 41 -20 61 -22 34 -2 -46 -8 -72 -15 -72 -4 0
-8 5 -8 11 0 5 -5 7 -12 3 -9 -6 -9 -9 0 -12 7 -2 5 -11 -8 -25 -11 -11 -20
-29 -20 -38 0 -10 -4 -21 -10 -24 -5 -3 -10 -14 -10 -23 0 -10 -9 -23 -20 -30
-12 -7 -18 -17 -15 -22 8 -13 -1 -13 -25 0 -16 8 -18 8 -14 -5 4 -10 0 -15
-12 -15 -18 -1 -18 -1 0 -15 19 -14 18 -15 -15 -16 -29 0 -31 -2 -14 -10 15
-7 8 -8 -27 -6 -28 1 -43 -2 -38 -7 18 -18 -8 -42 -47 -43 -21 -1 -32 0 -25 3
26 12 10 23 -28 20 -35 -3 -39 -1 -28 12 11 13 10 14 -10 8 -17 -6 -21 -4 -16
7 3 9 -3 17 -18 21 -14 5 -18 9 -10 13 20 8 14 23 -10 23 -19 0 -20 2 -8 10
10 6 11 10 3 10 -7 0 -13 6 -13 14 0 7 -7 19 -15 26 -8 7 -15 21 -15 31 0 11
7 19 15 19 8 0 15 6 15 14 0 8 6 17 13 19 8 4 6 6 -4 6 -13 1 -15 8 -9 41 8
42 5 50 -13 46 -7 -2 -9 -1 -5 1 4 2 4 12 1 21 -3 11 -2 13 4 5 11 -16 63 -35
63 -23 0 5 -10 10 -22 12 -12 2 -24 9 -26 17 -3 10 0 12 12 8 11 -5 16 -1 16
14 0 11 4 18 10 14 5 -3 7 -12 3 -20 -3 -10 1 -15 11 -15 12 0 15 -6 10 -25
-7 -28 2 -31 30 -10 17 13 17 15 3 21 -10 3 -17 10 -17 15 0 4 7 6 15 3 10 -4
15 0 15 12 0 11 4 15 8 9 10 -13 32 -17 32 -6 0 5 10 13 21 16 16 6 18 9 8 15
-11 7 -11 13 0 34 11 21 12 28 1 41 -10 12 -10 15 2 15 23 0 53 42 54 75 1 17
-1 24 -3 18 -3 -7 -10 -13 -16 -13 -7 1 -3 8 8 18 11 9 21 28 22 42 1 14 7 26
13 28 5 2 8 8 4 13 -3 5 0 9 7 9 7 0 9 10 7 25 -3 14 -1 25 5 25 6 0 2 7 -9
15 -19 14 -18 14 4 15 12 0 22 6 22 14 0 9 10 12 31 10 26 -3 29 -1 24 16 -6
18 -2 20 39 20 25 0 46 4 46 9 0 18 91 22 97 4z m2094 -23 c6 0 7 -5 3 -12 -5
-8 -11 -6 -20 7 -7 10 -10 23 -6 29 4 7 8 5 10 -6 2 -10 8 -18 13 -18z m-1925
-7 c-2 -2 -11 0 -20 3 -14 5 -15 9 -5 15 12 7 34 -10 25 -18z m2296 -51 c-4
-19 -2 -23 8 -17 9 6 11 4 5 -4 -10 -17 -21 -3 -30 38 -6 29 -5 32 7 20 8 -7
12 -24 10 -37z m-2212 -5 c0 -5 -4 -5 -10 -2 -5 3 -10 14 -10 23 0 15 2 15 10
2 5 -8 10 -19 10 -23z m1780 -22 c0 -5 -5 -3 -10 5 -5 8 -10 20 -10 25 0 6 5
3 10 -5 5 -8 10 -19 10 -25z m-1392 -37 c-3 -7 1 -19 9 -26 19 -20 16 -32 -9
-31 -21 0 -21 1 -4 8 14 5 16 10 7 15 -6 4 -18 2 -26 -4 -15 -13 -21 0 -7 14
4 4 8 12 8 17 3 17 4 19 15 19 6 0 9 -6 7 -12z m-373 -27 c3 -5 2 -12 -3 -15
-5 -3 -9 1 -9 9 0 17 3 19 12 6z m1809 -26 c-4 -8 -8 -15 -10 -15 -2 0 -4 7
-4 15 0 8 4 15 10 15 5 0 7 -7 4 -15z m-1824 -19 c0 -11 -19 -15 -25 -6 -3 5
1 10 9 10 9 0 16 -2 16 -4z m395 -20 c12 -12 12 -15 0 -20 -8 -3 -15 -4 -15
-2 0 3 -3 11 -6 20 -8 20 3 21 21 2z m-16 -65 c9 -6 11 -15 6 -27 -5 -11 -7
-24 -6 -31 1 -6 -3 -14 -9 -18 -8 -5 -7 -11 1 -21 19 -23 4 -16 -17 8 -10 12
-13 18 -6 14 15 -9 16 8 0 33 -11 18 -6 51 9 51 4 0 14 -4 22 -9z m-1228 -114
c-10 -9 -11 -8 -5 6 3 10 9 15 12 12 3 -3 0 -11 -7 -18z m100 -4 c2 1 -2 -3
-9 -10 -8 -6 -21 -9 -30 -5 -15 6 -15 7 1 10 10 2 14 8 10 15 -5 8 -2 8 9 0 8
-7 17 -12 19 -10z m1109 -3 c0 -5 -4 -10 -10 -10 -5 0 -10 5 -10 10 0 6 5 10
10 10 6 0 10 -4 10 -10z m-1223 -82 c-3 -8 -6 -5 -6 6 -1 11 2 17 5 13 3 -3 4
-12 1 -19z m163 -2 c0 -3 -4 -8 -10 -11 -5 -3 -10 -1 -10 4 0 6 5 11 10 11 6
0 10 -2 10 -4z m3817 -141 c0 -8 -4 -15 -9 -15 -10 0 -11 14 -1 23 9 10 10 9
10 -8z m-3670 -197 c-3 -8 -6 -5 -6 6 -1 11 2 17 5 13 3 -3 4 -12 1 -19z
m3038 -18 c3 -6 -1 -13 -10 -16 -19 -8 -30 0 -20 15 8 14 22 14 30 1z m-1295
-130 c0 -5 -5 -10 -11 -10 -5 0 -7 5 -4 10 3 6 8 10 11 10 2 0 4 -4 4 -10z
m1856 -217 c1 -13 -3 -23 -8 -23 -6 0 -8 -6 -5 -13 3 -8 -1 -14 -9 -14 -8 0
-13 6 -10 14 3 7 1 13 -4 13 -6 0 -5 9 1 23 14 30 34 30 35 0z m-44 -115 c-8
-8 -9 -4 -5 13 4 13 8 18 11 10 2 -7 -1 -18 -6 -23z m-1478 -43 c-4 -8 -8 -15
-10 -15 -2 0 -4 7 -4 15 0 8 4 15 10 15 5 0 7 -7 4 -15z m1359 -39 c4 -10 1
-13 -9 -9 -15 6 -19 23 -5 23 5 0 11 -7 14 -14z m-1249 -61 c-4 -8 -8 -15 -10
-15 -2 0 -4 7 -4 15 0 8 4 15 10 15 5 0 7 -7 4 -15z m-2447 -131 c-3 -3 -12
-4 -19 -1 -8 3 -5 6 6 6 11 1 17 -2 13 -5z m3371 -3 c11 -7 10 -9 -3 -14 -9
-4 -14 -3 -10 2 3 5 -1 12 -7 14 -7 3 -8 6 -3 6 6 0 16 -3 23 -8z m-3300 -22
c-19 -12 -25 -11 -25 5 0 8 8 11 20 8 14 -4 16 -7 5 -13z m467 -19 c3 -5 1
-10 -4 -10 -6 0 -11 5 -11 10 0 6 2 10 4 10 3 0 8 -4 11 -10z m-228 -26 c-3
-3 -12 -4 -19 -1 -8 3 -5 6 6 6 11 1 17 -2 13 -5z"/>
<path d="M4500 3669 c0 -8 32 -29 44 -29 15 0 3 16 -19 27 -14 6 -25 7 -25 2z"/>
<path d="M4515 3530 c-3 -5 -1 -10 4 -10 6 0 11 5 11 10 0 6 -2 10 -4 10 -3 0
-8 -4 -11 -10z"/>
<path d="M4385 3490 c-3 -5 1 -10 9 -10 8 0 18 5 21 10 3 6 -1 10 -9 10 -8 0
-18 -4 -21 -10z"/>
<path d="M3760 3230 c0 -5 4 -10 9 -10 6 0 13 5 16 10 3 6 -1 10 -9 10 -9 0
-16 -4 -16 -10z"/>
<path d="M3812 3215 c-7 -8 -9 -15 -4 -15 5 0 15 7 22 15 16 19 -1 19 -18 0z"/>
<path d="M3670 3200 c-9 -6 -10 -10 -3 -10 6 0 15 5 18 10 8 12 4 12 -15 0z"/>
<path d="M3840 3179 c0 -5 5 -7 10 -4 6 3 10 8 10 11 0 2 -4 4 -10 4 -5 0 -10
-5 -10 -11z"/>
<path d="M3855 3150 c-15 -16 -15 -20 -3 -20 8 0 23 9 33 20 15 16 15 20 3 20
-8 0 -23 -9 -33 -20z"/>
<path d="M3980 3101 c0 -5 7 -11 14 -14 10 -4 13 -1 9 9 -6 15 -23 19 -23 5z"/>
<path d="M4835 2510 c-3 -5 -1 -10 4 -10 6 0 11 5 11 10 0 6 -2 10 -4 10 -3 0
-8 -4 -11 -10z"/>
<path d="M1271 3607 c-8 -10 -7 -14 2 -14 8 0 14 6 14 14 0 7 -1 13 -2 13 -2
0 -8 -6 -14 -13z"/>
<path d="M796 3335 c10 -8 26 -14 34 -14 9 0 4 6 -10 14 -33 19 -49 19 -24 0z"/>
<path d="M1370 3340 c0 -5 7 -10 15 -10 8 0 15 5 15 10 0 6 -7 10 -15 10 -8 0
-15 -4 -15 -10z"/>
<path d="M1352 3305 c-10 -12 -10 -15 1 -15 8 0 20 7 27 15 17 21 -10 20 -28
0z"/>
<path d="M750 3269 c0 -5 5 -7 10 -4 6 3 10 8 10 11 0 2 -4 4 -10 4 -5 0 -10
-5 -10 -11z"/>
<path d="M1300 3264 c0 -8 5 -12 10 -9 6 3 10 10 10 16 0 5 -4 9 -10 9 -5 0
-10 -7 -10 -16z"/>
<path d="M780 3256 c0 -2 7 -7 16 -10 8 -3 12 -2 9 4 -6 10 -25 14 -25 6z"/>
<path d="M1283 3225 c0 -22 2 -30 4 -17 2 12 2 30 0 40 -3 9 -5 -1 -4 -23z"/>
<path d="M1300 3222 c0 -12 3 -12 18 -1 9 7 19 14 21 16 2 1 -6 1 -18 0 -11
-1 -21 -8 -21 -15z"/>
<path d="M1214 3160 c0 -11 6 -20 13 -20 7 0 13 9 13 20 0 11 -6 20 -13 20 -7
0 -13 -9 -13 -20z"/>
<path d="M1270 3168 c0 -9 -6 -19 -12 -21 -8 -3 -7 -6 4 -6 22 -1 29 11 17 29
-7 13 -9 12 -9 -2z"/>
<path d="M1175 3000 c3 -5 8 -10 11 -10 2 0 4 5 4 10 0 6 -5 10 -11 10 -5 0
-7 -4 -4 -10z"/>
<path d="M970 2890 c0 -5 5 -10 10 -10 6 0 10 5 10 10 0 6 -4 10 -10 10 -5 0
-10 -4 -10 -10z"/>
<path d="M361 2281 c-10 -6 -9 -10 3 -14 8 -3 18 -2 21 3 8 13 -9 20 -24 11z"/>
<path d="M4825 2930 c4 -6 11 -8 16 -5 14 9 11 15 -7 15 -8 0 -12 -5 -9 -10z"/>
<path d="M2059 2228 c-5 -15 -4 -50 1 -53 3 -2 6 9 6 26 0 24 -3 37 -7 27z"/>
<path d="M4402 2118 c-6 -6 -12 -18 -12 -26 0 -10 3 -10 16 2 8 9 14 21 12 26
-2 7 -8 6 -16 -2z"/>
<path d="M4420 2086 c0 -2 7 -7 16 -10 8 -3 12 -2 9 4 -6 10 -25 14 -25 6z"/>
<path d="M4062 1841 c-11 -6 -9 -9 6 -13 15 -4 19 -2 15 8 -6 16 -4 16 -21 5z"/>
<path d="M4051 1785 c0 -11 3 -14 6 -7 4 10 8 10 21 0 10 -7 14 -8 10 -4 -4 5
-3 15 3 23 9 10 6 13 -15 11 -19 -2 -26 -8 -25 -23z"/>
<path d="M3793 1685 c0 -14 3 -25 7 -25 11 0 18 22 12 38 -7 21 -19 13 -19
-13z"/>
<path d="M4811 1564 c0 -11 3 -14 6 -6 3 7 2 16 -1 19 -3 4 -6 -2 -5 -13z"/>
<path d="M4225 1479 c-4 -6 -5 -12 -2 -15 2 -3 7 2 10 11 7 17 1 20 -8 4z"/>
<path d="M3868 1443 c7 -3 16 -2 19 1 4 3 -2 6 -13 5 -11 0 -14 -3 -6 -6z"/>
<path d="M4440 1329 c0 -5 5 -7 10 -4 6 3 10 8 10 11 0 2 -4 4 -10 4 -5 0 -10
-5 -10 -11z"/>
<path d="M2900 1251 c0 -6 4 -13 10 -16 6 -3 7 1 4 9 -7 18 -14 21 -14 7z"/>
<path d="M2950 1190 c0 -5 5 -10 11 -10 5 0 7 5 4 10 -3 6 -8 10 -11 10 -2 0
-4 -4 -4 -10z"/>
<path d="M4698 1103 c7 -3 16 -2 19 1 4 3 -2 6 -13 5 -11 0 -14 -3 -6 -6z"/>
<path d="M3256 847 c3 -10 9 -15 12 -12 3 3 0 11 -7 18 -10 9 -11 8 -5 -6z"/>
<path d="M4445 780 c4 -6 11 -8 16 -5 14 9 11 15 -7 15 -8 0 -12 -5 -9 -10z"/>
<path d="M4357 754 c-8 -8 1 -24 12 -24 4 0 8 7 8 15 0 16 -9 20 -20 9z"/>
<path d="M3405 740 c-3 -6 1 -7 9 -4 18 7 21 14 7 14 -6 0 -13 -4 -16 -10z"/>
<path d="M4395 740 c3 -5 8 -10 11 -10 2 0 4 5 4 10 0 6 -5 10 -11 10 -5 0 -7
-4 -4 -10z"/>
<path d="M4312 710 c0 -14 2 -19 5 -12 2 6 2 18 0 25 -3 6 -5 1 -5 -13z"/>
<path d="M4260 699 c-40 -21 -37 -24 9 -8 17 6 31 15 31 20 0 5 -1 9 -2 8 -2
-1 -19 -9 -38 -20z"/>
<path d="M1326 2242 c-3 -5 1 -9 9 -9 8 0 12 4 9 9 -3 4 -7 8 -9 8 -2 0 -6 -4
-9 -8z"/>
<path d="M1260 2231 c0 -4 11 -6 25 -3 14 2 25 6 25 8 0 2 -11 4 -25 4 -14 0
-25 -4 -25 -9z"/>
<path d="M1479 1951 c-32 -30 -32 -32 -9 -26 32 9 54 29 48 46 -3 8 -16 1 -39
-20z"/>
<path d="M1575 1970 c-3 -6 1 -7 9 -4 18 7 21 14 7 14 -6 0 -13 -4 -16 -10z"/>
<path d="M1075 1910 c-3 -5 -2 -10 4 -10 5 0 13 5 16 10 3 6 2 10 -4 10 -5 0
-13 -4 -16 -10z"/>
<path d="M1443 1883 c-7 -15 -11 -29 -8 -31 3 -3 5 0 5 6 0 6 7 9 15 6 11 -5
15 1 15 20 0 33 -12 33 -27 -1z"/>
<path d="M1436 1834 c-13 -13 -19 -14 -32 -4 -12 11 -13 10 -9 -3 4 -8 2 -18
-4 -22 -14 -8 -14 -45 -1 -45 6 0 10 6 10 14 0 8 14 26 31 41 17 14 29 28 26
31 -2 3 -12 -2 -21 -12z"/>
<path d="M1395 1740 c-3 -5 -1 -10 4 -10 6 0 11 5 11 10 0 6 -2 10 -4 10 -3 0
-8 -4 -11 -10z"/>
<path d="M956 1692 c-3 -5 1 -15 9 -22 21 -17 27 -9 10 13 -7 10 -16 14 -19 9z"/>
<path d="M940 1640 c0 -5 5 -10 10 -10 6 0 10 5 10 10 0 6 -4 10 -10 10 -5 0
-10 -4 -10 -10z"/>
<path d="M2330 1463 c0 -16 6 -23 20 -23 11 0 20 7 20 16 0 8 -5 12 -11 8 -6
-3 -15 0 -20 7 -6 10 -9 8 -9 -8z"/>
<path d="M1020 1449 c0 -5 5 -7 10 -4 6 3 10 8 10 11 0 2 -4 4 -10 4 -5 0 -10
-5 -10 -11z"/>
<path d="M1043 1435 c-3 -9 -3 -18 -1 -21 3 -3 8 4 11 16 6 23 -1 27 -10 5z"/>
<path d="M496 1303 c-6 -14 -5 -15 5 -6 7 7 10 15 7 18 -3 3 -9 -2 -12 -12z"/>
<path d="M408 1143 c7 -3 16 -2 19 1 4 3 -2 6 -13 5 -11 0 -14 -3 -6 -6z"/>
<path d="M1768 839 c-37 -30 -50 -59 -27 -59 6 0 9 6 6 14 -6 14 39 56 73 69
13 5 13 5 0 6 -8 0 -32 -13 -52 -30z"/>
<path d="M1665 740 c-3 -5 -1 -10 4 -10 6 0 11 5 11 10 0 6 -2 10 -4 10 -3 0
-8 -4 -11 -10z"/>
<path d="M805 700 c3 -5 11 -10 16 -10 6 0 7 5 4 10 -3 6 -11 10 -16 10 -6 0
-7 -4 -4 -10z"/>
<path d="M4690 1039 c0 -5 5 -7 10 -4 6 3 10 8 10 11 0 2 -4 4 -10 4 -5 0 -10
-5 -10 -11z"/>
<path d="M2811 3704 c0 -11 3 -14 6 -6 3 7 2 16 -1 19 -3 4 -6 -2 -5 -13z"/>
<path d="M2291 3624 c0 -11 3 -14 6 -6 3 7 2 16 -1 19 -3 4 -6 -2 -5 -13z"/>
<path d="M2771 3414 c0 -11 3 -14 6 -6 3 7 2 16 -1 19 -3 4 -6 -2 -5 -13z"/>
<path d="M2810 3340 c0 -11 2 -20 4 -20 2 0 6 9 9 20 3 11 1 20 -4 20 -5 0 -9
-9 -9 -20z"/>
</g>
</svg>
